<?xml version="1.0" encoding="UTF-8"?>
<svg version="1.1" viewBox="0 0 932 808" width="233" height="202" xmlns="http://www.w3.org/2000/svg">
<path transform="translate(0)" d="m0 0h932v808h-932z" fill="#FEFEFE"/>
<path transform="translate(457,118)" d="m0 0h15l17 2 17 4 16 6 16 8 12 8 11 9 4 3v2l4 2 7 8 11 15 9 16 8 20 4 16 2 13v30l-4 19-6 20-12 23-12 16-9 10-12 11-15 10-19 10-21 7-15 3-12 2h-19l-23-4-24-8-19-10-14-10-12-11-9-9-11-15-10-18-6-15-5-17-2-12v-36l5-23 8-21 8-15 10-14 11-12 5-5h2v-2l13-10 13-8 14-7 18-6 12-3z" fill="#289ED2"/>
<path transform="translate(428,19)" d="m0 0h53l21 3 20 5 20 7 24 11 17 10 14 10 13 11 10 9 9 9 9 11 11 15 12 20 11 23 7 19 5 19 4 21 2 19v27l-3 23-6 25-9 27-9 19-5 5-19 12-19 11-17 9-25 11-28 11-22 6-13 3h-7l3-2 22-8 16-8 15-9 15-13 8-7 13-13 13-18 11-19 9-21 6-20 4-21 1-12v-25l-4-26-7-25-9-21-9-17-14-19-8-8-4-5-8-7-13-11-19-12-23-11-21-7-19-4-7-1h-21l-21 1-28 4-29 6-26 8-20 7-27 11-23 12-24 15-23 16-19 14-12 10-10 8-11 10-8 7-13 12-29 29-9 11-7 7-7 8-11 13-8 10-2 2 1 4 9 7 16 13 17 13 36 26 22 14 16 10 34 18 7 7 7 10 10 13 11 12 12 12 14 11 8 7v2l-8-2-38-15-33-15-20-10-23-13-17-10-17-11-15-10-11-8-19-14-13-10-13-11-16-13-10-9-11-9-13-11 1-4 12-16 11-14 14-17 9-11 11-12 7-8 15-16 27-27h2l2-4 8-7 10-9 8-7 11-9h2v-2l16-12 14-10 20-14 18-11 11-7 16-8 25-12 28-11 24-8 28-7 26-5z" fill="#3FC1BD"/>
<path transform="translate(615,65)" d="m0 0 7 1 31 11 26 11 25 12 21 11 13 8 23 14 22 14 17 12 19 14 11 9 16 13 11 9 11 10 8 7 14 12 2 2-1 4-14 18-11 14-9 11-13 15-9 10-12 13-16 17-31 31-8 7-10 9-25 20-15 11-13 9-21 14-26 15-29 15-26 11-22 8-32 9-30 6-15 2-15 1h-33l-20-2-24-5-21-6-19-8-19-10-19-12-13-11-8-7-13-12-12-13-14-19-13-23-9-21-6-18-6-26-3-24v-33l3-24 5-22 8-24 11-24 5-5 15-9 23-13 20-11 24-10 39-14 23-6 4 1-3 2-26 9-18 10-17 12-13 12-13 13-13 18-11 18-8 17-8 24-4 21-1 9v27l3 24 5 21 7 20 9 19 11 17 10 13 11 12 2 1v2l4 2 11 10 13 9 16 9 21 9 24 7 16 3h22l28-2 32-5 26-6 36-12 27-11 20-10 27-16 16-11 20-14 13-10 11-9 15-13 26-24 24-24 7-8 12-13 7-8 11-13 8-10 2-2-1-4-14-11-18-14-17-13-16-12-17-12-23-14-15-9-29-16-5-4-12-17-11-13-9-10-13-13-10-8-10-7z" fill="#365E73"/>
<path transform="translate(57,548)" d="m0 0h19l16 4 12 6 10 9 8 10 5 11 3 9 2 14v20l-2 14-4 12-5 10-9 10-7 6-16 8-11 3-7 1h-11l-17-4-15-8-9-8-7-10-6-13-4-17v-27l4-18 5-12 8-10 8-8 14-8z" fill="#3FC1BD"/>
<path transform="translate(391,550)" d="m0 0h27l9 3 4 13 12 62 2 11 1 1 8-45 7-37 4-6 7-2h30l9 2-4 17-14 53-16 59-3 6-4 3-12 2h-28l-10-2-4-5-6-20-18-69-11-42 1-2z" fill="#1E485C"/>
<path transform="translate(154,588)" d="m0 0h7l10 5 6 5 10-6 12-4h11l11 4 9 6 7 8 6 13 2 13v15l-3 16-7 14-9 9-12 6-5 1h-19v37l-2 1h-17l-15-1-1-1-1-103-10-3-3-5-1-9 2-9 5-8z" fill="#3FC1BD"/>
<path transform="translate(764,588)" d="m0 0 13 1 12 4 10 7 7 8 6 13 2 9v22l-4 15-7 11-10 9-15 7-5 1h-13l-12-4-13-9-7-8-5-10-3-14v-18l2-10 5-12 6-8 7-6 12-6z" fill="#1E475B"/>
<path transform="translate(834,588)" d="m0 0h8l12 6 4 4 4-1 11-6 10-3h11l13 4 8 6 5 8 2 7 1 10v67l-1 2-10 1h-15l-9-1-1-51-1-18h-8l-6 2-1 61-1 6h-24l-10-1-1-3-1-63-8-3-3-6v-13l4-9 5-5z" fill="#1E485C"/>
<path transform="translate(613,588)" d="m0 0 17 1 13 3 7 4 2 5-3 9-6 9-8-1-4-1h-14l1 4 9 6 12 6 9 7 5 8 2 7-1 12-4 9-7 8-11 7-12 4h-20l-13-5-10-6-4-5v-8l3-9 4-6 9 3 11 4 8 1 4-1-1-4-14-8-11-8-6-9-3-10v-8l3-11 7-8 8-5 9-3z" fill="#1E485C"/>
<path transform="translate(285,568)" d="m0 0 15 1 2 1 1 9v10l15 1 4 1 1 4v20l-3 4-6 1h-9v72l-1 1h-28l-8-1-1-1v-71l-11-1-2-1-1-3v-21l2-3 11-2 1-14 2-5z" fill="#3FC1BD"/>
<path transform="translate(468,157)" d="m0 0h18l19 4 13 5 13 8 11 9 8 9 8 13 7 16 3 13v10l-4 6-5 4-2 1h-7l-6-4-4-8-4-16-9-17-11-11-10-6-12-5-16-3h-9l-8-3-4-5-1-8 4-8 5-3z" fill="#FEFEFE"/>
<path transform="translate(670,590)" d="m0 0h33l3 1v75l-1 26-9 1h-18l-10-1-1-66v-35z" fill="#1D475B"/>
<path transform="translate(334,590)" d="m0 0h35l2 1v100l-1 1h-37v-101z" fill="#3EC0BE"/>
<path transform="translate(524,590)" d="m0 0h33l2 1 1 8v40l-1 52-1 1-9 1h-18l-9-1v-101z" fill="#1E485C"/>
<path transform="translate(61,588)" d="m0 0h11l8 5 6 7 3 9v22l-3 9-5 8-5 4-5 2h-10l-6-3-7-8-4-14v-16l4-13 6-8z" fill="#FEFEFE"/>
<path transform="translate(342,548)" d="m0 0h27l2 2v29l-5 2h-32l-2-2 1-30z" fill="#3FC1BD"/>
<path transform="translate(691,548)" d="m0 0h11l3 1 1 2v24l-1 5h-37v-31z" fill="#1E485C"/>
<path transform="translate(529,548)" d="m0 0h29l1 1v31l-22 1-15-1v-30z" fill="#1F495D"/>
<path transform="translate(221,758)" d="m0 0h18l6 3 2 6v23l-5 5-3 1h-16l-3-2v-34z" fill="#1093F5"/>
<path transform="translate(801,758)" d="m0 0h11l6 5 2 6v18l-6 8-2 1h-12l-5-4-3-5-1-14 2-8 4-5z" fill="#1194F4"/>
<path transform="translate(585,758)" d="m0 0h18l6 4 2 4v7l-4 5h-2l1 6 6 9-1 3h-6l-4-4-4-10-6-2v15l-1 1h-7v-36z" fill="#1294F3"/>
<path transform="translate(153,758)" d="m0 0h19l5 4 2 4v7l-4 5h-2l1 6 6 9-1 3h-6l-3-2-4-10-4-3h-3v15h-7l-1-1v-35z" fill="#1294F3"/>
<path transform="translate(841,758)" d="m0 0h19l5 4 2 4v7l-4 5-2 1 1 5 6 9-1 3h-6l-4-4-4-10-1-1h-5l1 13-1 2h-7l-1-1v-35z" fill="#1294F3"/>
<path transform="translate(653,758)" d="m0 0 7 1 7 10 4 1 2-5 3-5 4-2 4 1 1 4v32l-8 1-2-1 1-17-10 2-3-3-2-3v20l-1 1h-8l-1-5 1-31z" fill="#1194F5"/>
<path transform="translate(339,758)" d="m0 0 7 1 6 10 5 7v2h2l1-18 1-2h5l1 1 1 37h-6l-4-4-9-15-2-2v18l-2 3h-6l-1-1v-35z" fill="#1194F5"/>
<path transform="translate(763,623)" d="m0 0h8l5 5 3 8-1 14-4 7-6 3-6-1-4-5-2-6v-14l4-8z" fill="#FEFEFE"/>
<path transform="translate(108,758)" d="m0 0h24l1 1v5l-1 1h-17v8l11 1 1 1v5l-12 1-1 4v4l19 1 1 3-3 3h-22l-3-3v-32z" fill="#1294F3"/>
<path transform="translate(295,758)" d="m0 0h24l1 1v5l-1 1h-17l-1 9h12l1 5-1 1-10 1-2 1 1 7 18 1v5l-3 1h-22l-2-2v-34z" fill="#1193F4"/>
<path transform="translate(705,758)" d="m0 0h24l1 1v5l-4 1h-14l-1 9h12l1 6-13 1-1 8h19l2 5-3 2h-23l-2-2v-34z" fill="#1294F3"/>
<path transform="translate(194,625)" d="m0 0h7l5 4 2 4v18l-2 7-5 4-8 1-1-1v-35z" fill="#FEFEFE"/>
<path transform="translate(509,758)" d="m0 0h6l3 5 6 19 2-3 4-16 3-5h6l-2 10-8 26-7 2-3-2-6-19-4-13z" fill="#1294F4"/>
<path transform="translate(59,758)" d="m0 0h6l3 4 5 19v2h2l2-9 4-14 3-2h5l-1 7-8 25-3 5h-7l-2-2-9-33z" fill="#1295F3"/>
<path transform="translate(436,757)" d="m0 0 6 2 4 10 3 12 1 2 6-19 2-5 7-1-1 7-10 30-6 1-4-4-9-31z" fill="#1294F3"/>
<path transform="translate(768,758)" d="m0 0h5l1 2 1 23-2 7-6 5-2 1h-10l-7-6-2-5 1-5 5 1 3 7 2 1h6l2-1 1-3v-26z" fill="#1295F4"/>
<path transform="translate(802,764)" d="m0 0h8l3 4 1 5v9l-3 7-2 1h-7l-3-3-1-5v-10l3-7z" fill="#FEFEFE"/>
<path transform="translate(558,758)" d="m0 0h5l1 1 1 14v22h-10l1-36z" fill="#1193F5"/>
<path transform="translate(267,759)" d="m0 0h7l1 15v20l-1 1h-8l-1-1 1-34z" fill="#1496F2"/>
<path transform="translate(485,758)" d="m0 0h5l1 1v36l-2 1h-6v-37z" fill="#1395F1"/>
<path transform="translate(703,591)" d="m0 0h3v75l-1 26-2-1-1-1v-9l1-9-1-57z" fill="#375E73"/>
<path transform="translate(667,591)" d="m0 0h3l1 24-2 76 2 1h-3l-1-66z" fill="#375E73"/>
<path transform="translate(847,764)" d="m0 0h10l3 2v7l-10 2-4-2v-7z" fill="#FEFEFE"/>
<path transform="translate(159,764)" d="m0 0h9l4 3v6l-9 2-4-1-1-1v-7z" fill="#FEFEFE"/>
<path transform="translate(592,764)" d="m0 0h8l4 3v6l-10 2-4-2v-6z" fill="#FEFEFE"/>
<path transform="translate(229,780)" d="m0 0h10l2 6-1 3-4 1h-8l-1-1v-7z" fill="#FEFEFE"/>
<path transform="translate(812,625)" d="m0 0h1l1 5v22l-4 15-2-1 2-22 1-17z" fill="#365D72"/>
<path transform="translate(229,764)" d="m0 0h7l4 3v6l-2 1h-10l-1-5z" fill="#FEFEFE"/>
<path transform="translate(609,688)" d="m0 0 10 3 5 2-4 2h-20l-3-2-1-2 11-2 2 1z" fill="#375E73"/>
<path transform="translate(503,551)" d="m0 0 8 1-4 17-7 27-2-4 6-25h2v-8l1-6z" fill="#375E73"/>
<path transform="translate(764,688)" d="m0 0 4 1 10 4v1l-5 1h-13l-4-2v-2l7-1z" fill="#375E73"/>
<path transform="translate(703,549)" d="m0 0h2l1 2v24l-1 5-3-1 1-1-1-10z" fill="#375E73"/>
<path transform="translate(388,788)" d="m0 0h5l1 4-4 9-5-1 1-6z" fill="#1495F0"/>
<path transform="translate(653,651)" d="m0 0 2 4-1 12-1 3-3 1v-7l1-10z" fill="#375E73"/>
<path transform="translate(519,425)" d="m0 0 6 1-1 2-9 2h-7l3-2z" fill="#33AFC8"/>
<path transform="translate(677,768)" d="m0 0h1v14l-2-4h-5l4-2 1-7z" fill="#2AA2D0"/>
<path transform="translate(413,93)" d="m0 0 4 1-3 2-8 2-1-3z" fill="#2EA7CD"/>
</svg>
